<svg id="Capa_1" enable-background="new 0 0 512 512" height="512" viewBox="0 0 512 512" width="512" xmlns="http://www.w3.org/2000/svg"><g><path d="m511.915 412.436-22.036-268.826v-53.045c0-10.351-8.421-18.772-18.772-18.772h-74.024c-4.116 0-7.451 3.336-7.451 7.452 0 4.115 3.336 7.452 7.451 7.452h74.024c2.134 0 3.869 1.736 3.869 3.869v45.894h-164.288v-16.934c0-8.492-6.908-15.4-15.4-15.4h-16.102c-8.492 0-15.4 6.908-15.4 15.4v16.934h-15.573v-16.934c0-8.492-6.908-15.4-15.4-15.4h-16.102c-8.492 0-15.4 6.908-15.4 15.4v16.934h-164.286v-45.895c0-2.134 1.736-3.869 3.869-3.869h309.989c4.116 0 7.451-3.336 7.451-7.452 0-4.115-3.336-7.452-7.451-7.452h-309.989c-10.352 0-18.772 8.421-18.772 18.772v53.045l-22.037 268.828c-.584 7.129 1.861 14.234 6.708 19.494 4.846 5.26 11.728 8.277 18.881 8.277h183.906c12.999 0 23.959-9.734 25.493-22.643l8.981-75.532c.72-6.049 5.855-10.61 11.947-10.61 6.091 0 11.227 4.562 11.947 10.61l8.98 75.533c1.536 12.908 12.496 22.642 25.494 22.642h183.906c7.153 0 14.035-3.016 18.881-8.277 4.845-5.26 7.29-12.365 6.706-19.495zm-233.225-292.91c0-.274.223-.497.497-.497h16.102c.274 0 .497.223.497.497v97.197c0 .274-.223.497-.497.497h-16.102c-.274 0-.497-.223-.497-.497zm215.558 302.306c-2.063 2.239-4.876 3.472-7.921 3.472h-183.906c-5.454 0-10.052-4.084-10.696-9.499l-8.98-75.532c-1.61-13.542-13.108-23.754-26.745-23.754s-25.135 10.212-26.745 23.754l-8.981 75.533c-.644 5.415-5.241 9.499-10.695 9.499h-183.905c-3.045 0-5.858-1.233-7.921-3.472-2.064-2.239-3.063-5.144-2.815-8.178l21.501-262.291h164.873v8.264c0 4.115 3.336 7.452 7.451 7.452 4.116 0 7.452-3.336 7.452-7.452v-40.101c0-.274.223-.497.497-.497h16.102c.274 0 .497.223.497.497v97.197c0 .274-.223.497-.497.497h-16.102c-.274 0-.497-.223-.497-.497v-11.394c0-4.115-3.336-7.452-7.452-7.452s-7.451 3.336-7.451 7.452v11.393c0 8.492 6.908 15.4 15.4 15.4h16.102c8.492 0 15.4-6.908 15.4-15.4v-65.36h15.573v65.36c0 8.492 6.908 15.4 15.4 15.4h16.102c8.492 0 15.4-6.908 15.4-15.4v-65.36h164.873l21.501 262.291c.248 3.035-.752 5.939-2.815 8.178z"/></g></svg>