<svg id="Capa_1" enable-background="new 0 0 510.499 510.499" height="512" viewBox="0 0 510.499 510.499" width="512" xmlns="http://www.w3.org/2000/svg"><g><g><path d="m147.663 54.521c4.053 1.015 8.178-1.416 9.204-5.433l8.708-34.088h16.723v68.096c0 12.522 6.969 24.035 18.186 30.046 21.802 11.682 33.95 32.644 40.302 48.171 2.402 5.869 8.079 9.662 14.463 9.661 6.386 0 12.062-3.792 14.462-9.661 6.354-15.528 18.504-36.49 40.304-48.171 11.218-6.011 18.187-17.524 18.187-30.046v-68.096h16.723l25.629 100.321c5.957 23.32 5.518 47.854-1.271 70.949l-11.427 38.88c-3.596 12.234-5.873 24.877-6.766 37.578-.291 4.132 2.857 7.715 7.032 8.003.18.012.357.019.535.019 3.945 0 7.273-3.024 7.551-6.979.82-11.637 2.906-23.221 6.2-34.431l11.427-38.88c7.542-25.656 8.03-52.911 1.413-78.816l-27.077-105.982c-.851-3.33-3.878-5.662-7.347-5.662h-30.2c-4.185 0-7.577 3.358-7.577 7.5v75.596c0 7.01-3.926 13.469-10.246 16.855-25.758 13.802-39.85 37.926-47.136 55.733-.069.168-.118.291-.415.291s-.346-.122-.415-.291c-7.284-17.806-21.375-41.93-47.134-55.732-6.32-3.387-10.246-9.845-10.246-16.855v-75.597c0-4.142-3.392-7.5-7.577-7.5h-30.2c-3.469 0-6.496 2.332-7.347 5.662l-10.155 39.75c-1.027 4.015 1.429 8.093 5.487 9.109z"/><path d="m372.786 322.317c-1.354-4.47-2.526-9.045-3.486-13.599-.853-4.055-4.867-6.652-8.965-5.811-4.097.846-6.725 4.818-5.871 8.874 1.047 4.97 2.327 9.964 3.804 14.842l14.07 46.466c3.352 11.067-1.654 23.042-11.9 28.474-29.562 15.675-79.458 48.523-85.281 93.937h-39.815c-5.822-45.411-55.719-78.262-85.282-93.937-10.245-5.432-15.251-17.407-11.899-28.474l14.07-46.466c10.039-33.153 10.182-68.242.413-101.473l-11.427-38.88c-6.788-23.095-7.228-47.629-1.271-70.949l5.425-21.233c1.025-4.016-1.432-8.094-5.489-9.109-4.055-1.017-8.178 1.416-9.204 5.433l-5.425 21.233c-6.617 25.906-6.129 53.16 1.413 78.816l11.427 38.88c8.95 30.448 8.819 62.599-.38 92.976l-14.07 46.466c-5.411 17.871 2.69 37.217 19.261 46.003 27.38 14.518 73.872 44.79 77.604 84.413.605 6.442 6.007 11.301 12.565 11.301h44.352c6.558 0 11.96-4.858 12.565-11.299 3.732-39.625 50.223-69.897 77.604-84.415 16.572-8.786 24.672-28.132 19.261-46.003z"/></g></g></svg>