<svg id="Capa_1" enable-background="new 0 0 513.012 513.012" height="512" viewBox="0 0 513.012 513.012" width="512" xmlns="http://www.w3.org/2000/svg"><g><g><path d="m329.269 378.074c-21.908 13.143-47.069 20.09-72.763 20.09-78.111 0-141.658-63.547-141.658-141.658 0-51.13 27.717-98.479 72.333-123.567 3.611-2.03 4.892-6.603 2.862-10.213s-6.603-4.891-10.213-2.862c-49.334 27.741-79.982 80.099-79.982 136.642 0 86.382 70.276 156.658 156.658 156.658 28.411 0 56.24-7.686 80.479-22.227 3.552-2.131 4.704-6.738 2.573-10.29-2.13-3.551-6.738-4.703-10.289-2.573z"/><path d="m256.506 99.848c-10.603 0-21.201 1.066-31.5 3.17-4.059.829-6.677 4.791-5.848 8.849s4.792 6.679 8.849 5.848c9.314-1.902 18.903-2.866 28.5-2.866 78.11 0 141.658 63.548 141.658 141.658 0 34.479-12.532 67.705-35.288 93.557-2.736 3.109-2.435 7.848.675 10.585 1.425 1.254 3.191 1.87 4.952 1.87 2.08 0 4.15-.86 5.633-2.544 25.168-28.592 39.028-65.337 39.028-103.468-.001-86.383-70.277-156.659-156.659-156.659z"/><path d="m256.506 57.593c4.143 0 7.5-3.358 7.5-7.5v-42.593c0-4.142-3.357-7.5-7.5-7.5-4.142 0-7.5 3.358-7.5 7.5v42.593c0 4.142 3.358 7.5 7.5 7.5z"/><path d="m256.506 455.418c-4.142 0-7.5 3.358-7.5 7.5v42.593c0 4.142 3.358 7.5 7.5 7.5 4.143 0 7.5-3.358 7.5-7.5v-42.593c0-4.142-3.358-7.5-7.5-7.5z"/><path d="m146.804 81.497c1.389 2.406 3.91 3.751 6.502 3.751 1.272 0 2.562-.324 3.743-1.006 3.587-2.071 4.816-6.658 2.745-10.245l-21.296-36.886c-2.071-3.587-6.658-4.816-10.245-2.745s-4.816 6.658-2.745 10.245z"/><path d="m366.207 431.515c-2.072-3.588-6.66-4.815-10.245-2.745-3.587 2.071-4.816 6.658-2.745 10.245l21.297 36.886c1.39 2.406 3.91 3.751 6.502 3.751 1.272 0 2.563-.324 3.743-1.006 3.587-2.071 4.816-6.658 2.745-10.245z"/><path d="m81.497 146.804-36.886-21.296c-3.587-2.072-8.174-.842-10.245 2.745s-.842 8.174 2.745 10.245l36.886 21.296c1.181.682 2.471 1.006 3.743 1.006 2.592 0 5.113-1.346 6.502-3.751 2.071-3.587.842-8.174-2.745-10.245z"/><path d="m475.901 374.514-36.887-21.296c-3.589-2.072-8.176-.842-10.245 2.745-2.071 3.587-.842 8.174 2.745 10.245l36.887 21.296c1.182.682 2.471 1.006 3.743 1.006 2.592 0 5.113-1.346 6.502-3.751 2.072-3.588.842-8.175-2.745-10.245z"/><path d="m57.593 256.506c0-4.142-3.358-7.5-7.5-7.5h-42.593c-4.142 0-7.5 3.358-7.5 7.5s3.358 7.5 7.5 7.5h42.593c4.142 0 7.5-3.358 7.5-7.5z"/><path d="m505.512 249.006h-42.593c-4.143 0-7.5 3.358-7.5 7.5s3.357 7.5 7.5 7.5h42.593c4.143 0 7.5-3.358 7.5-7.5s-3.358-7.5-7.5-7.5z"/><path d="m73.997 353.217-36.886 21.296c-3.587 2.071-4.816 6.658-2.745 10.245 1.389 2.406 3.91 3.751 6.502 3.751 1.272 0 2.562-.324 3.743-1.006l36.886-21.296c3.587-2.071 4.816-6.658 2.745-10.245-2.072-3.587-6.659-4.816-10.245-2.745z"/><path d="m435.271 160.801c1.272 0 2.563-.324 3.743-1.006l36.887-21.296c3.587-2.071 4.816-6.658 2.745-10.245-2.07-3.587-6.659-4.817-10.245-2.745l-36.887 21.296c-3.587 2.071-4.816 6.658-2.745 10.245 1.389 2.406 3.911 3.751 6.502 3.751z"/><path d="m157.049 428.77c-3.587-2.072-8.174-.842-10.245 2.745l-21.296 36.886c-2.071 3.587-.842 8.174 2.745 10.245 1.181.682 2.471 1.006 3.743 1.006 2.592 0 5.113-1.346 6.502-3.751l21.296-36.886c2.072-3.588.843-8.175-2.745-10.245z"/><path d="m355.962 84.242c1.181.682 2.471 1.006 3.743 1.006 2.592 0 5.113-1.345 6.502-3.751l21.297-36.886c2.071-3.587.842-8.174-2.745-10.245-3.586-2.072-8.175-.843-10.245 2.745l-21.297 36.886c-2.071 3.587-.842 8.174 2.745 10.245z"/></g></g></svg>