<svg xmlns="http://www.w3.org/2000/svg" width="16" height="16" viewBox="0 0 16 16"><defs><style>.a{fill:#999;}.b{fill:none;}</style></defs><g transform="translate(-2021 -637)"><path class="a" d="M16,9a8.048,8.048,0,0,1-2.333,5.667l-.72-.72a6.985,6.985,0,0,0,0-9.893l.72-.72A8.048,8.048,0,0,1,16,9M13.333,7.4V6.333H11.2A1.07,1.07,0,0,0,10.133,7.4V8.467A1.067,1.067,0,0,0,11.2,9.533h1.067V10.6H10.133v1.067h2.133A1.07,1.07,0,0,0,13.333,10.6V9.533a1.067,1.067,0,0,0-1.067-1.067H11.2V7.4h2.133M5.613,5a4.605,4.605,0,0,1,4.773,0H12.46A5.973,5.973,0,0,0,3.54,5H5.613M8.8,9a.82.82,0,0,1,.8.8v.8a1.067,1.067,0,0,1-1.067,1.067H6.4V6.333H8.533A1.067,1.067,0,0,1,9.6,7.4v.8a.82.82,0,0,1-.8.8m-.267.533H7.467V10.6H8.533V9.533m0-2.133H7.467V8.467H8.533V7.4M3.053,4.053l-.72-.72a8.048,8.048,0,0,0,0,11.333l.72-.72a6.985,6.985,0,0,1,0-9.893M4.8,11.667V9.533H3.733v2.133H2.667V7.4A1.067,1.067,0,0,1,3.733,6.333H4.8A1.07,1.07,0,0,1,5.867,7.4v4.267H4.8m0-3.2V7.4H3.733V8.467H4.8M10.387,13a4.605,4.605,0,0,1-4.773,0H3.54a5.973,5.973,0,0,0,8.92,0Z" transform="translate(2021 636)"/><rect class="b" width="16" height="16" transform="translate(2021 637)"/></g></svg>