<svg xmlns="http://www.w3.org/2000/svg" width="16" height="16" viewBox="0 0 16 16"><defs><style>.a{fill:#fff;}.b{fill:#999;}</style></defs><g transform="translate(-426 -224)"><rect class="a" width="16" height="16" transform="translate(426 224)"/><g transform="translate(429 226)"><g transform="translate(0)"><path class="b" d="M31.334,9.092V2.907a1.5,1.5,0,1,0-1,0V5.5h-3V2.907a1.5,1.5,0,1,0-1,0V5.5h-3V2.907a1.5,1.5,0,1,0-1,0V6a.5.5,0,0,0,.5.5h3.5V9.092a1.5,1.5,0,1,0,1,0V6.5h3V9.092a1.5,1.5,0,1,0,1,0Z" transform="translate(-21.334)"/></g></g></g></svg>