<svg xmlns="http://www.w3.org/2000/svg" width="31.869" height="40.102" viewBox="0 0 31.869 40.102"><defs><style>.a{fill:#f97d00;stroke:#f97d00;stroke-miterlimit:10;stroke-width:0.094px;}</style></defs><g transform="translate(0.047 0.06)"><path class="a" d="M108.367.28a23.732,23.732,0,0,1,15.958,4.47c.945.716,2.235,1.49,1.948,2.865-.029,4.412,0,8.8,0,13.208a21.149,21.149,0,0,1-.344,5.043,16.469,16.469,0,0,1-4.613,7.449,35.57,35.57,0,0,1-10.2,6.7,1.912,1.912,0,0,1-1.834-.172A33.931,33.931,0,0,1,98.4,32.14a13.859,13.859,0,0,1-3.839-9c-.029-5.071,0-10.142-.029-15.214.029-.688-.115-1.576.544-2.034A23.688,23.688,0,0,1,108.367.28m-.573,2.665A22.178,22.178,0,0,0,97.681,7.1c-.63.315-.516,1.089-.544,1.662.029,4.785,0,9.6.029,14.383a11.364,11.364,0,0,0,3.467,7.592,31.887,31.887,0,0,0,8.28,6.045c.688.344,1.461.888,2.206.4a31.807,31.807,0,0,0,9.2-6.59,11.216,11.216,0,0,0,3.352-7.449c.029-4.785-.029-9.6.029-14.383-.086-.516.115-1.2-.4-1.547a21.049,21.049,0,0,0-15.5-4.269Z" transform="translate(-94.529 -0.187)"/><g transform="translate(4.727 9.025)"><path class="a" d="M124.422,29.943a11.158,11.158,0,0,1,14.268.172c-.6.573-1.2,1.146-1.776,1.748A8.731,8.731,0,0,0,126.2,31.72c-.573-.6-1.175-1.175-1.776-1.776Z" transform="translate(-120.44 -27.44)"/><path class="a" d="M110.609,47.121a11.146,11.146,0,0,1,2.378-5.644c.6.6,1.2,1.175,1.776,1.776a8.66,8.66,0,0,0-1.719,5.558,9.063,9.063,0,0,0,1.92,5.071c-.6.544-1.175,1.146-1.776,1.719a11.123,11.123,0,0,1-2.578-8.48Z" transform="translate(-110.523 -37.456)"/><path class="a" d="M172.694,43.953c.6-.6,1.2-1.2,1.8-1.776a10.995,10.995,0,0,1-.2,13.752c-.6-.573-1.175-1.175-1.776-1.776a8.553,8.553,0,0,0,.172-10.2Z" transform="translate(-154.759 -37.955)"/><path class="a" d="M125.322,91.2c.573-.6,1.175-1.2,1.776-1.776a8.687,8.687,0,0,0,10.2-.143c.6.6,1.2,1.175,1.8,1.8a11.221,11.221,0,0,1-13.781.115Z" transform="translate(-121.082 -71.561)"/></g><path class="a" d="M129.01,43.8a.578.578,0,0,0-.152.021l-.578.159-.6-1.462a1.31,1.31,0,0,0-1.12-.751h-5.618a1.31,1.31,0,0,0-1.12.751l-.6,1.46-.571-.157a.57.57,0,0,0-.152-.021.469.469,0,0,0-.471.5v.341a.609.609,0,0,0,.609.609h.065l-.1.236a4.567,4.567,0,0,0-.287,1.453v2.9a.609.609,0,0,0,.609.609h.8a.609.609,0,0,0,.609-.609v-.725h6.84v.725a.609.609,0,0,0,.609.609h.795a.609.609,0,0,0,.609-.609v-2.9a4.567,4.567,0,0,0-.287-1.452l-.1-.236h.074a.609.609,0,0,0,.609-.609V44.3A.468.468,0,0,0,129.01,43.8Zm-9.352,1.115.908-2.212a.787.787,0,0,1,.672-.451h5.025a.787.787,0,0,1,.672.451l.908,2.212a.3.3,0,0,1-.3.451H119.96A.3.3,0,0,1,119.658,44.917Zm2.027,2.8a.244.244,0,0,1-.243.243h-1.725a.244.244,0,0,1-.244-.243v-.828a.244.244,0,0,1,.244-.243h1.725a.244.244,0,0,1,.243.243Zm6.326,0a.244.244,0,0,1-.243.243h-1.725a.244.244,0,0,1-.243-.243v-.828a.244.244,0,0,1,.243-.243h1.725a.244.244,0,0,1,.243.243Z" transform="translate(-107.999 -26.011)"/></g></svg>