<svg xmlns="http://www.w3.org/2000/svg" width="16" height="16" viewBox="0 0 16 16"><defs><style>.a{fill:#fff;}.b{fill:#999;stroke:#858585;stroke-width:0.3px;}</style></defs><g transform="translate(-428 -271)"><rect class="a" width="16" height="16" transform="translate(428 271)"/><g transform="translate(429 272)"><rect class="b" width="2.057" height="0.686" transform="translate(8.056 8.396)"/><path class="b" d="M13.567.264A.686.686,0,0,0,13.027,0H6.172a.685.685,0,0,0-.485.2L.2,5.685A.685.685,0,0,0,0,6.17v6.855a.685.685,0,0,0,.686.686H11.656a.685.685,0,0,0,.686-.686V6.254l1.35-5.4A.686.686,0,0,0,13.567.264ZM11.656,13.025H.688V6.855H11.656Zm0-6.855H.688L6.172.686h6.855Z" transform="translate(-0.002)"/></g></g></svg>